<svg xmlns="http://www.w3.org/2000/svg" width="100" height="100"><style>@media (prefers-color-scheme:dark){:root{filter:invert(100%)}}</style><rect width="100" height="100" rx="50"/><path fill="#fff" d="M31.48 73.11H15.45V26.89h15.11q7.52 0 11.32 3.11 3.79 3.12 3.79 9.21 0 3.24-1.84 5.73t-5.02 3.85q3.75 1.05 5.92 3.99 2.18 2.93 2.18 7 0 6.22-4.04 9.77-4.03 3.56-11.39 3.56Zm.22-21.62H21.55v16.63h10.06q4.25 0 6.71-2.2 2.46-2.21 2.46-6.08 0-8.35-9.08-8.35ZM21.55 31.91V46.6h9.2q4 0 6.4-2 2.39-2 2.39-5.42 0-3.81-2.22-5.54t-6.76-1.73h-9.01Zm59.86 15.8v4.99h-19.4v20.41h-6.09V26.89h28.63v5.02H62.01v15.8h19.4Z"/></svg>